<?xml version="1.0" encoding="utf-8"?>
<!-- Generator: Adobe Illustrator 16.0.0, SVG Export Plug-In . SVG Version: 6.00 Build 0)  -->
<!DOCTYPE svg PUBLIC "-//W3C//DTD SVG 1.1//EN" "http://www.w3.org/Graphics/SVG/1.1/DTD/svg11.dtd">
<svg version="1.1" id="圖層_1" xmlns="http://www.w3.org/2000/svg" xmlns:xlink="http://www.w3.org/1999/xlink" x="0px" y="0px"
	 width="598.088px" height="89.333px" viewBox="0 0 598.088 89.333" enable-background="new 0 0 598.088 89.333"
	 xml:space="preserve">
<rect x="-290.857" y="-29.051" display="none" fill="#E60012" width="936" height="265"/>
<polygon display="none" fill="#FFFFFF" points="13.48,102.121 13.48,102.119 13.479,102.119 "/>
<path display="none" fill="#FFFFFF" d="M-13.11,28.37c-0.05-0.01-0.109-0.029-0.17-0.04c0.061,0.011,0.12,0.03,0.181,0.05
	C-13.09,28.37-13.11,28.37-13.11,28.37z"/>
<path fill="#FFFFFF" d="M332.793,24.578c-0.52-0.72-1.93-2.05-5.76-4.24c-1.32-0.75-2.1-1.399-2.439-2.04
	c-0.32-0.59-0.49-1.409-0.49-2.479c0-0.9,0.16-1.59,0.5-2.1c0.41-0.631,1.05-0.971,1.819-0.971c0.99,0,1.48,0.511,1.69,0.82
	c0.3,0.44,0.43,1.14,0.43,2.33v0.979h4.721v-0.06c0-2.45-0.301-3.57-0.551-4.08c-0.319-0.67-1.04-1.25-2.13-1.729
	c-1.189-0.53-2.67-0.79-4.399-0.79c-1.57,0-2.91,0.239-3.99,0.71c-1.021,0.449-1.73,1.05-2.17,1.81c-0.311,0.54-0.69,1.68-0.69,4
	c0,1.28,0.17,2.33,0.5,3.12c0.32,0.77,0.73,1.38,1.2,1.79c0.54,0.479,1.7,1.29,3.44,2.399c2.52,1.591,3.239,2.24,3.569,2.591
	c0.65,0.699,0.95,1.899,0.95,3.779c0,0.92-0.17,1.63-0.51,2.16c-0.42,0.65-1.101,1.01-1.92,1.01c-1.04,0-1.57-0.479-1.84-0.89
	c-0.311-0.47-0.45-1.21-0.45-2.479v-2.261h-4.71v0.761c0,1.869,0.189,3.31,0.56,4.279c0.34,0.851,1.08,1.58,2.221,2.17
	c1.22,0.63,2.729,0.95,4.5,0.95c1.609,0,3.029-0.28,4.22-0.83c1.109-0.51,1.859-1.13,2.21-1.819c0.27-0.521,0.59-1.601,0.59-3.761
	C333.863,27.309,333.503,25.578,332.793,24.578z"/>
<path fill="#FFFFFF" d="M351.713,17.398c-0.13-0.54-0.51-1.021-1.17-1.48c-0.68-0.47-1.51-0.71-2.52-0.71
	c-0.67,0-1.3,0.11-1.87,0.33c-0.58,0.221-1.12,0.561-1.62,1.01l-1.67,1.49v-7.26h-4.94v24.78h4.94v-14.67
	c0-1.29,0.09-2.091,0.29-2.601c0.3-0.76,0.96-1.189,1.79-1.189c0.88,0,1.55,0.439,1.83,1.199c0.12,0.33,0.25,0.95,0.25,2.811v14.45
	h4.939V21.418C351.963,18.969,351.823,17.878,351.713,17.398z"/>
<path fill="#FFFFFF" d="M369.354,18.559c-0.19-0.91-0.75-1.67-1.73-2.32c-1.01-0.68-2.609-1.03-4.75-1.03
	c-1.77,0-3.21,0.311-4.27,0.931c-1.03,0.59-1.721,1.26-2.03,1.97c-0.35,0.79-0.53,1.979-0.53,3.53v0.47h4.511v-1.3
	c0-1.78,0.119-2.32,0.239-2.641c0.13-0.319,0.561-1.069,1.811-1.069c0.79,0,1.42,0.38,1.77,1.06c0.181,0.351,0.38,0.97,0.38,2.7
	c0,1.12-0.109,1.83-0.359,2.29c-0.24,0.439-0.7,0.88-4.19,2.2c-2.58,0.97-3.37,1.56-3.609,1.819c-0.2,0.23-0.551,0.88-0.551,2.69
	v1.8c0,1.271,0.19,2.9,1.061,3.47c0.859,0.551,1.779,0.82,2.8,0.82c0.75,0,1.38-0.15,1.89-0.45c0.521-0.3,0.931-0.75,1.271-1.38
	l0.05-0.08c-0.13,0.021-0.26,0.03-0.41,0.03c-0.84,0-1.5-0.4-1.82-1.08c-0.149-0.32-0.329-0.92-0.329-2.62
	c0-1.109,0.109-1.96,0.319-2.6c0.25-0.75,0.98-1.54,2.3-2.471l1.58-1.109v6.81l0.19-0.35v4.91h4.75V25.538
	C369.693,21.998,369.583,19.648,369.354,18.559z"/>
<path fill="#FFFFFF" d="M380.644,17.929l-2.42,4.96l0.699-7.28h-4.84v19.95h4.94v-7.67c0-2.96,0.13-3.88,0.229-4.311
	c0.2-0.859,0.75-1.56,1.591-2.02c0.569-0.32,1.319-0.511,2.279-0.59v-5.551C382.104,15.788,381.283,16.618,380.644,17.929z"/>
<path fill="#FFFFFF" d="M400.394,24.969v-1.91c0-1.98-0.23-3.511-0.69-4.561c-0.42-0.97-1.149-1.739-2.229-2.35
	c-1.11-0.62-2.57-0.94-4.33-0.94c-1.431,0-2.71,0.271-3.79,0.79c-1.03,0.49-1.74,1.17-2.181,2.08c-0.47,0.97-0.71,2.351-0.71,4.101
	v6.399c0,1.53,0.11,2.7,0.33,3.46c0.19,0.71,0.561,1.37,1.08,1.96c0.51,0.58,1.25,1.05,2.21,1.4c1.011,0.37,2.2,0.55,3.54,0.55
	c1.38,0,2.521-0.18,3.391-0.54c0.85-0.35,1.529-0.86,2.08-1.56c0.56-0.71,0.909-1.36,1.06-1.95c0.16-0.65,0.24-1.62,0.24-2.89v-0.62
	h-4.58v1.899c0,1.28-0.12,2.101-0.37,2.63c-0.19,0.431-0.72,1.15-1.96,1.15c-1.08,0-1.55-0.61-1.74-0.97
	c-0.24-0.45-0.34-1.17-0.34-2.38v-5.75H400.394z M391.403,20.788c0-1.8,0.12-2.33,0.25-2.649c0.16-0.391,0.61-1.04,1.82-1.04
	c0.81,0,1.43,0.42,1.699,1.14c0.131,0.33,0.261,0.89,0.261,2.55v2.61h-4.03V20.788z"/>
<path fill="#FFFFFF" d="M419.033,15.608l-1.7,22.62l-3.479-22.62h-4.21l3.55,17.15c0.42,1.979,0.45,2.31,0.45,2.51
	c0,0.79-0.431,1.399-1.141,1.649c-0.22,0.07-0.58,0.15-1.409,0.19v1.52h3.21c2.26,0,3.359-0.199,3.89-0.369
	c0.7-0.23,1.22-0.551,1.59-1c0.39-0.48,0.68-1.101,0.86-1.86c0.2-0.87,0.46-2.57,0.77-5.04l1.84-14.75H419.033z"/>
<path fill="#FFFFFF" d="M440.033,19.118c-0.18-0.62-0.54-1.24-1.05-1.85c-0.5-0.58-1.24-1.08-2.19-1.46
	c-1-0.4-2.22-0.601-3.64-0.601c-1.67,0-3.04,0.311-4.07,0.91c-1,0.58-1.67,1.32-2.05,2.271c-0.41,1.02-0.61,2.5-0.61,4.399v5.63
	c0,1.771,0.11,3.091,0.341,3.931c0.21,0.79,0.55,1.43,1.04,1.97c0.46,0.52,1.149,0.92,2.029,1.19
	c0.971,0.289,2.181,0.439,3.61,0.439c1.25,0,2.37-0.17,3.31-0.51c0.9-0.32,1.61-0.8,2.181-1.47c0.56-0.681,0.939-1.4,1.109-2.16
	c0.19-0.84,0.28-2.23,0.28-4.12v-5.37C440.323,20.858,440.224,19.788,440.033,19.118z M435.383,30.778c0,1.16-0.079,1.84-0.289,2.28
	c-0.29,0.64-0.921,1.01-1.721,1.01s-1.43-0.39-1.72-1.07c-0.14-0.319-0.29-0.87-0.29-2.43v-9.91c0-1.68,0.15-2.229,0.29-2.55
	c0.31-0.64,0.94-1.01,1.74-1.01s1.43,0.38,1.72,1.04c0.14,0.31,0.27,0.859,0.27,2.52V30.778z"/>
<path fill="#FFFFFF" d="M453.563,15.608v13.77c0,0.881-0.021,1.53-0.04,2.021l0.28-0.43l-0.301,4.59h4.99v-19.95H453.563z
	 M451.493,34.068c-1.3,0-1.71-0.81-1.83-1.16c-0.109-0.33-0.22-0.96-0.22-3.37v-13.93h-4.94v13.8c0,1.83,0.04,3.061,0.12,3.66
	c0.061,0.5,0.221,0.99,0.49,1.46c0.23,0.41,0.59,0.74,1.1,1c0.54,0.28,1.261,0.42,2.141,0.42c0.75,0,1.41-0.15,1.96-0.439
	c0.56-0.29,1.02-0.721,1.41-1.32l0.09-0.141C451.713,34.059,451.604,34.068,451.493,34.068z"/>
<path fill="#FFFFFF" d="M469.554,17.929l-2.421,4.96l0.7-7.28h-4.84v19.95h4.94v-7.67c0-2.96,0.13-3.87,0.229-4.301
	c0.2-0.869,0.75-1.569,1.59-2.029c0.57-0.32,1.32-0.511,2.28-0.59v-5.551C471.014,15.788,470.193,16.618,469.554,17.929z"/>
<path fill="#FFFFFF" d="M490.833,15.608l-0.66,2.22c0.07,0.11,0.12,0.21,0.16,0.28c0.13,0.3,0.261,0.81,0.261,2.32v6.8
	c0,1.819-0.15,2.43-0.271,2.76c-0.29,0.74-0.96,1.16-1.83,1.16c-0.8,0-1.42-0.37-1.71-1.04c-0.13-0.29-0.27-0.82-0.27-2.3v-7.38
	c0-1.131,0.109-1.851,0.369-2.33c0.341-0.65,0.95-1,1.73-1c0.14,0,0.27,0.01,0.39,0.029l-0.18-0.229
	c-0.479-0.58-0.99-0.99-1.58-1.271c-0.57-0.279-1.229-0.42-1.939-0.42c-1.301,0-2.21,0.34-2.801,1.021
	c-0.62,0.729-0.93,2.02-0.93,3.85v7.97c0,1.33,0.13,2.351,0.38,3.021c0.22,0.57,0.63,1.03,1.24,1.4c0.65,0.39,1.51,0.59,2.57,0.59
	c0.59,0,1.159-0.11,1.689-0.33c0.561-0.22,1.09-0.561,1.601-1l1.659-1.45v3.86c0,1.17-0.119,1.899-0.39,2.37
	c-0.25,0.43-0.79,0.949-1.92,0.949c-0.79,0-1.64-0.399-1.96-1.46h-4.78c0.19,1.17,0.67,1.95,1.46,2.38
	c1.19,0.641,2.82,0.96,4.86,0.96c1.68,0,3.08-0.18,4.16-0.529c1.01-0.34,1.79-0.82,2.34-1.42c0.53-0.601,0.84-1.141,0.92-1.62
	c0.06-0.42,0.15-1.5,0.15-4.26v-15.9H490.833z"/>
<path fill="#FFFFFF" d="M506.583,17.929l-2.42,4.96l0.7-7.28h-4.84v19.95h4.939v-7.67c0-2.96,0.131-3.88,0.23-4.301
	c0.2-0.869,0.75-1.569,1.59-2.029c0.57-0.32,1.32-0.511,2.29-0.59v-5.551C508.043,15.788,507.224,16.618,506.583,17.929z"/>
<path fill="#FFFFFF" d="M526.023,19.118c-0.19-0.62-0.54-1.24-1.05-1.85c-0.5-0.58-1.24-1.08-2.2-1.46
	c-0.99-0.4-2.21-0.601-3.641-0.601c-1.659,0-3.029,0.311-4.06,0.91c-1,0.58-1.67,1.32-2.05,2.271c-0.41,1.02-0.62,2.5-0.62,4.399
	v5.63c0,1.771,0.12,3.091,0.35,3.931c0.21,0.79,0.551,1.43,1.04,1.97c0.46,0.52,1.15,0.92,2.03,1.19
	c0.96,0.289,2.18,0.439,3.61,0.439c1.25,0,2.359-0.17,3.31-0.51c0.9-0.32,1.61-0.8,2.17-1.47c0.57-0.681,0.95-1.4,1.11-2.16
	c0.189-0.84,0.29-2.23,0.29-4.12v-5.37C526.313,20.858,526.213,19.788,526.023,19.118z M521.373,30.778c0,1.16-0.09,1.84-0.29,2.28
	c-0.29,0.64-0.92,1.01-1.72,1.01s-1.43-0.39-1.73-1.07c-0.13-0.319-0.289-0.87-0.289-2.43v-9.91c0-1.68,0.159-2.229,0.3-2.55
	c0.31-0.64,0.939-1.01,1.729-1.01c0.811,0,1.44,0.38,1.73,1.04c0.13,0.31,0.27,0.859,0.27,2.52V30.778z"/>
<path fill="#FFFFFF" d="M544.003,19.118c-0.18-0.62-0.529-1.24-1.05-1.85c-0.5-0.58-1.229-1.08-2.189-1.46
	c-0.99-0.4-2.221-0.601-3.641-0.601c-1.67,0-3.04,0.311-4.069,0.91c-1,0.58-1.671,1.32-2.051,2.271
	c-0.399,1.02-0.609,2.5-0.609,4.399v5.63c0,1.771,0.109,3.091,0.34,3.931c0.21,0.79,0.55,1.43,1.04,1.97
	c0.47,0.52,1.149,0.92,2.03,1.19c0.97,0.289,2.18,0.439,3.609,0.439c1.25,0,2.37-0.17,3.311-0.51c0.899-0.32,1.609-0.8,2.18-1.47
	c0.57-0.681,0.94-1.4,1.11-2.16c0.189-0.84,0.279-2.23,0.279-4.12v-5.37C544.293,20.858,544.203,19.788,544.003,19.118z
	 M539.363,30.778c0,1.16-0.09,1.84-0.3,2.28c-0.29,0.64-0.92,1.01-1.72,1.01c-0.801,0-1.421-0.39-1.721-1.07
	c-0.14-0.319-0.29-0.87-0.29-2.43v-9.91c0-1.68,0.15-2.229,0.3-2.55c0.301-0.64,0.931-1.01,1.73-1.01c0.81,0,1.44,0.38,1.72,1.04
	c0.141,0.31,0.28,0.859,0.28,2.52V30.778z"/>
<path fill="#FFFFFF" d="M551.453,15.608h-4.14l3.17,19.95h3.399L551.453,15.608z M556.653,15.608c-0.22,2.1-0.41,4.28-0.58,6.49
	c-0.37,4.55-0.64,7.47-0.79,8.66l-0.62,4.8h3.17l2.95-19.95H556.653z"/>
<path fill="#FFFFFF" d="M577.673,24.969v-1.91c0-1.98-0.229-3.511-0.68-4.561c-0.43-0.97-1.16-1.739-2.24-2.35
	c-1.1-0.62-2.56-0.94-4.319-0.94c-1.44,0-2.71,0.271-3.801,0.79c-1.02,0.49-1.739,1.17-2.18,2.08c-0.46,0.97-0.7,2.351-0.7,4.101
	v6.399c0,1.53,0.11,2.7,0.32,3.46c0.2,0.71,0.56,1.37,1.09,1.96c0.5,0.58,1.25,1.05,2.21,1.4c1,0.37,2.2,0.55,3.54,0.55
	c1.37,0,2.51-0.18,3.38-0.54c0.86-0.35,1.53-0.86,2.08-1.56c0.561-0.71,0.92-1.36,1.061-1.95c0.16-0.65,0.239-1.62,0.239-2.89v-0.62
	h-4.579v1.899c0,1.28-0.11,2.101-0.36,2.63c-0.2,0.431-0.72,1.15-1.96,1.15c-1.08,0-1.561-0.61-1.75-0.97
	c-0.23-0.45-0.33-1.17-0.33-2.38v-5.75H577.673z M568.693,20.788c0-1.8,0.11-2.33,0.24-2.649c0.16-0.391,0.609-1.04,1.819-1.04
	c0.811,0,1.44,0.42,1.71,1.14c0.12,0.33,0.25,0.89,0.25,2.55v2.61h-4.02V20.788z"/>
<path fill="#FFFFFF" d="M581.323,32.309v3.25h1.32l-0.16,1.14c-0.08,0.55-0.36,1.29-1.16,1.9v0.029c0.35-0.159,0.68-0.35,0.99-0.58
	c0.609-0.449,1.03-0.979,1.27-1.6c0.261-0.689,0.391-1.61,0.391-2.74v-1.399H581.323z"/>
<path fill="#FFFFFF" d="M32.423,59.198c-0.19-0.9-0.75-1.66-1.72-2.31c-1.02-0.69-2.62-1.03-4.75-1.03c-1.78,0-3.22,0.31-4.28,0.92
	c-1.03,0.6-1.72,1.26-2.03,1.98c-0.35,0.789-0.53,1.97-0.53,3.52v0.48h4.51v-1.301c0-1.779,0.12-2.319,0.24-2.64
	c0.13-0.33,0.56-1.08,1.81-1.08c0.79,0,1.42,0.38,1.78,1.07c0.17,0.34,0.37,0.96,0.37,2.7c0,1.119-0.11,1.829-0.36,2.289
	c-0.24,0.44-0.69,0.881-4.18,2.2c-2.59,0.96-3.38,1.55-3.62,1.82c-0.2,0.22-0.55,0.87-0.55,2.68v1.811c0,1.26,0.19,2.9,1.07,3.471
	c0.85,0.549,1.77,0.82,2.79,0.82c0.75,0,1.38-0.15,1.89-0.451c0.52-0.299,0.93-0.75,1.27-1.379l0.05-0.09
	c-0.13,0.02-0.26,0.029-0.41,0.029c-0.84,0-1.5-0.391-1.82-1.07c-0.15-0.33-0.33-0.92-0.33-2.62c0-1.11,0.11-1.971,0.32-2.601
	c0.25-0.76,0.99-1.54,2.31-2.47l1.57-1.11v6.811l0.19-0.36v4.911h4.75V66.188C32.763,62.639,32.653,60.288,32.423,59.198z"/>
<path fill="#FFFFFF" d="M50.863,57.969c-0.15-0.601-0.5-1.08-1.07-1.49c-0.58-0.41-1.37-0.62-2.34-0.62
	c-0.78,0-1.45,0.15-2.03,0.479c-0.57,0.311-1.04,0.78-1.45,1.41c0.08,0,0.15-0.01,0.23-0.01c1.31,0,1.71,0.84,1.82,1.2
	c0.1,0.32,0.2,0.93,0.2,3.06v14.201h4.94V61.818C51.163,59.548,51.003,58.469,50.863,57.969z M42.153,56.248h-5v19.951h4.94V62.368
	c0-0.68,0.01-1.22,0.03-1.649l-0.26,0.409L42.153,56.248z"/>
<path fill="#FFFFFF" d="M60.593,73.729c-0.22-0.44-0.31-1.12-0.31-2.2v-10.75c0-1.09,0.1-1.74,0.35-2.16
	c0.19-0.33,0.66-0.88,1.7-0.88c0.37,0,0.67,0.08,0.91,0.18l-0.56-0.569c-0.49-0.5-1.03-0.88-1.62-1.12
	c-0.59-0.25-1.26-0.37-1.98-0.37c-0.92,0-1.67,0.21-2.31,0.63c-0.61,0.4-0.99,0.85-1.14,1.33c-0.13,0.42-0.29,1.32-0.29,3.29v10.27
	c0,1.891,0.16,2.78,0.29,3.21c0.16,0.5,0.53,0.951,1.13,1.371c0.63,0.43,1.36,0.641,2.23,0.641c0.67,0,1.29-0.141,1.89-0.41
	c0.62-0.281,1.23-0.711,1.81-1.291l0.28-0.279c-0.2,0.061-0.43,0.09-0.69,0.09C61.513,74.709,60.893,74.349,60.593,73.729z
	 M64.393,51.429v7.67l-0.26-0.271c0.18,0.431,0.26,1.04,0.26,1.95v10.15c0,1.449-0.1,2.109-0.22,2.489l0.22-0.22v3.001h4.94V51.429
	H64.393z"/>
<path fill="#FFFFFF" d="M89.183,69.168v1.61c0,1.3-0.1,2.16-0.32,2.7c-0.32,0.78-1.01,1.23-1.88,1.23c-0.78,0-1.42-0.4-1.8-1.121
	c-0.29-0.54-0.42-1.27-0.42-2.229v-10.35c0-1.48,0.15-1.99,0.31-2.301c0.18-0.359,0.64-0.97,1.7-0.97c0.78,0,1.41,0.38,1.73,1.05
	c0.22,0.46,0.32,1.15,0.32,2.221v1.529h4.52c-0.05-1.45-0.24-2.6-0.55-3.43c-0.34-0.91-1.04-1.65-2.12-2.28
	c-1.13-0.64-2.52-0.97-4.14-0.97c-1.63,0-3.02,0.33-4.13,0.979c-1.08,0.62-1.77,1.32-2.07,2.051c-0.34,0.83-0.51,2.12-0.51,3.84
	v6.24c0,1.989,0.21,3.529,0.64,4.569c0.39,0.96,1.04,1.681,1.99,2.222c0.99,0.559,2.39,0.84,4.16,0.84c1.39,0,2.55-0.211,3.46-0.621
	c0.88-0.391,1.58-0.959,2.12-1.74c0.56-0.79,0.89-1.55,0.98-2.26c0.09-0.66,0.15-1.601,0.18-2.811H89.183z"/>
<path fill="#FFFFFF" d="M110.833,59.769c-0.18-0.62-0.54-1.25-1.05-1.851c-0.5-0.59-1.24-1.08-2.19-1.46c-1-0.399-2.22-0.6-3.64-0.6
	c-1.67,0-3.04,0.3-4.07,0.9c-1,0.59-1.67,1.329-2.05,2.27c-0.41,1.03-0.61,2.51-0.61,4.41v5.63c0,1.76,0.11,3.08,0.34,3.93
	c0.21,0.771,0.56,1.44,1.04,1.971c0.47,0.52,1.15,0.91,2.03,1.18c0.97,0.301,2.18,0.451,3.61,0.451c1.25,0,2.37-0.17,3.31-0.512
	c0.9-0.328,1.61-0.809,2.18-1.479c0.56-0.671,0.94-1.391,1.11-2.151c0.19-0.85,0.28-2.229,0.28-4.12v-5.38
	C111.123,61.509,111.023,60.438,110.833,59.769z M106.183,71.429c0,1.149-0.08,1.83-0.29,2.27c-0.29,0.64-0.92,1.011-1.72,1.011
	c-0.8,0-1.43-0.391-1.72-1.07c-0.14-0.311-0.29-0.86-0.29-2.431v-9.899c0-1.681,0.15-2.23,0.3-2.55c0.3-0.65,0.93-1.021,1.73-1.021
	c0.81,0,1.44,0.38,1.72,1.05c0.14,0.311,0.27,0.851,0.27,2.521V71.429z"/>
<path fill="#FFFFFF" d="M129.123,57.969c-0.15-0.601-0.51-1.08-1.07-1.49c-0.58-0.41-1.37-0.62-2.34-0.62
	c-0.79,0-1.45,0.15-2.03,0.479c-0.57,0.311-1.04,0.78-1.45,1.41c0.07,0,0.15-0.01,0.23-0.01c1.3,0,1.71,0.84,1.82,1.2
	c0.1,0.32,0.2,0.93,0.2,3.06v14.201h4.94V61.818C129.423,59.548,129.263,58.469,129.123,57.969z M120.413,56.248h-5v19.951h4.94
	V62.368c0-0.68,0.01-1.22,0.02-1.649l-0.25,0.409L120.413,56.248z"/>
<path fill="#FFFFFF" d="M138.803,56.248h-5v19.951h4.94V62.368c0-0.68,0.01-1.22,0.03-1.649l-0.26,0.409L138.803,56.248z
	 M147.523,57.969c-0.16-0.601-0.51-1.08-1.08-1.49c-0.57-0.41-1.36-0.62-2.33-0.62c-0.79,0-1.45,0.15-2.03,0.479
	c-0.57,0.311-1.05,0.78-1.46,1.41c0.08,0,0.16-0.01,0.24-0.01c1.3,0,1.7,0.84,1.81,1.2c0.1,0.32,0.2,0.93,0.2,3.06v14.201h4.94
	V61.818C147.813,59.548,147.653,58.469,147.523,57.969z"/>
<path fill="#FFFFFF" d="M165.923,65.618v-1.91c0-1.979-0.229-3.52-0.68-4.56c-0.43-0.98-1.16-1.75-2.24-2.351
	c-1.11-0.63-2.56-0.939-4.33-0.939c-1.43,0-2.71,0.26-3.79,0.78c-1.02,0.5-1.74,1.18-2.18,2.09c-0.47,0.96-0.71,2.34-0.71,4.1v6.4
	c0,1.53,0.11,2.7,0.33,3.46c0.2,0.71,0.56,1.359,1.08,1.96c0.51,0.58,1.26,1.051,2.21,1.4c1.01,0.359,2.2,0.551,3.54,0.551
	c1.38,0,2.52-0.191,3.39-0.551c0.85-0.35,1.53-0.85,2.08-1.551c0.56-0.71,0.921-1.37,1.06-1.95c0.16-0.649,0.24-1.619,0.24-2.89
	v-0.62h-4.58v1.891c0,1.29-0.11,2.1-0.36,2.63c-0.2,0.43-0.72,1.15-1.96,1.15c-1.09,0-1.56-0.601-1.75-0.971
	c-0.24-0.45-0.34-1.16-0.34-2.38v-5.74H165.923z M156.933,61.438c0-1.8,0.12-2.34,0.25-2.65c0.16-0.39,0.61-1.05,1.82-1.05
	c0.81,0,1.43,0.42,1.71,1.15c0.11,0.31,0.25,0.88,0.25,2.55v2.6h-4.03V61.438z"/>
<path fill="#FFFFFF" d="M179.343,70.778c0,1.3-0.1,2.16-0.319,2.7c-0.32,0.78-1.011,1.23-1.88,1.23c-0.78,0-1.42-0.4-1.801-1.121
	c-0.279-0.54-0.42-1.27-0.42-2.229v-10.35c0-1.48,0.16-1.99,0.311-2.301c0.18-0.359,0.64-0.97,1.699-0.97
	c0.791,0,1.421,0.38,1.73,1.05c0.221,0.46,0.32,1.15,0.32,2.221v1.529h4.529c-0.06-1.45-0.25-2.6-0.56-3.43
	c-0.34-0.91-1.03-1.65-2.12-2.28c-1.119-0.64-2.51-0.97-4.14-0.97s-3.021,0.33-4.13,0.979c-1.07,0.62-1.77,1.32-2.07,2.051
	c-0.34,0.83-0.51,2.12-0.51,3.84v6.24c0,1.989,0.21,3.529,0.64,4.569c0.39,0.96,1.04,1.681,1.99,2.222
	c0.99,0.559,2.39,0.84,4.17,0.84c1.38,0,2.54-0.211,3.45-0.621c0.89-0.391,1.58-0.959,2.13-1.74c0.55-0.79,0.88-1.55,0.979-2.26
	c0.09-0.66,0.141-1.601,0.17-2.811h-4.17V70.778z"/>
<path fill="#FFFFFF" d="M193.403,74.099c-0.34-0.37-0.5-0.91-0.5-3.101V58.259h1.88v-1.48h-1.88v-3.45h-4.95v3.45h-1.5v1.48h1.5
	v12.14c0,2.76,0.101,3.66,0.16,3.95c0.08,0.39,0.3,0.72,0.65,1.04c0.38,0.34,0.81,0.551,1.31,0.641c0.61,0.109,1.69,0.17,3.2,0.17
	h1.8v-1.561C194.163,74.578,193.703,74.418,193.403,74.099z"/>
<path fill="#FFFFFF" d="M208.673,67.948c-0.909-7.33-1.27-10.39-1.42-11.7h-3.939l2.67,19.951h3.71L208.673,67.948z M220.804,56.248
	c-0.74,4.32-1.221,8.23-1.431,11.63l-1.99,0.061l-1.31-11.69h-3.97c-0.88,6.99-1.37,10.91-1.44,11.67l-0.79,8.281h1.931l0.63-3.921
	c0.33-1.94,0.59-3.88,0.77-5.78l0.88-8.93l1.11,8.91c0.49,3.899,0.93,7.17,1.31,9.721h5.79l2.511-19.951H220.804z"/>
<path fill="none" d="M220.804,56.248c-0.74,4.32-1.221,8.23-1.431,11.63l-1.99,0.061l-1.31-11.69h-3.97
	c-0.88,6.99-1.37,10.91-1.44,11.67l-0.79,8.281h1.931l0.63-3.921c0.33-1.94,0.59-3.88,0.77-5.78l0.88-8.93l1.11,8.91
	c0.49,3.899,0.93,7.17,1.31,9.721h5.79l2.511-19.951H220.804z M208.673,67.948c-0.909-7.33-1.27-10.39-1.42-11.7h-3.939l2.67,19.951
	h3.71L208.673,67.948z"/>
<path fill="#FFFFFF" d="M228.063,51.429v1.479h5.14v-1.479H228.063z M228.063,56.248v19.951h5.14V56.248H228.063z"/>
<path fill="#FFFFFF" d="M243.514,74.099c-0.341-0.37-0.5-0.931-0.5-3.101V58.259h1.869v-1.48h-1.869v-3.45h-4.96v3.45h-1.49v1.48
	h1.49v12.14c0,2.76,0.109,3.66,0.17,3.96c0.08,0.37,0.29,0.71,0.649,1.03c0.38,0.34,0.811,0.551,1.3,0.641
	c0.62,0.109,1.69,0.17,3.2,0.17h1.8v-1.561C244.273,74.578,243.813,74.418,243.514,74.099z"/>
<path fill="#FFFFFF" d="M262.203,58.048c-0.13-0.539-0.51-1.02-1.17-1.479c-0.68-0.48-1.51-0.71-2.52-0.71
	c-0.67,0-1.301,0.11-1.87,0.33c-0.58,0.22-1.12,0.56-1.62,1.01l-1.67,1.48v-7.25h-4.94v24.771h4.94V61.538
	c0-1.29,0.09-2.09,0.29-2.6c0.3-0.76,0.96-1.2,1.79-1.2c0.88,0,1.55,0.44,1.83,1.21c0.119,0.33,0.25,0.95,0.25,2.8v14.451h4.939
	V62.068C262.453,59.618,262.313,58.528,262.203,58.048z"/>
<path fill="#FFFFFF" d="M281.894,51.429v7.67l-0.271-0.271c0.181,0.431,0.271,1.04,0.271,1.95v10.15
	c0,1.439-0.101,2.109-0.221,2.489l0.221-0.22v3.001h4.939V51.429H281.894z M278.083,73.729c-0.21-0.44-0.3-1.12-0.3-2.2v-10.75
	c0-1.09,0.1-1.74,0.34-2.16c0.19-0.33,0.66-0.88,1.7-0.88c0.37,0,0.67,0.08,0.91,0.18l-0.561-0.569
	c-0.479-0.5-1.029-0.88-1.619-1.12c-0.591-0.25-1.25-0.37-1.971-0.37c-0.92,0-1.68,0.21-2.319,0.63
	c-0.601,0.41-0.98,0.85-1.141,1.33c-0.13,0.42-0.279,1.32-0.279,3.29v10.27c0,1.891,0.149,2.78,0.289,3.21
	c0.15,0.49,0.53,0.951,1.131,1.371c0.619,0.43,1.35,0.641,2.229,0.641c0.66,0,1.29-0.141,1.89-0.41
	c0.62-0.281,1.23-0.711,1.801-1.291l0.29-0.289c-0.21,0.07-0.45,0.1-0.7,0.1C279.003,74.709,278.394,74.349,278.083,73.729z"/>
<path fill="#FFFFFF" d="M297.883,58.578l-2.409,4.95l0.689-7.28h-4.84v19.951h4.94v-7.661c0-2.96,0.13-3.88,0.229-4.31
	c0.2-0.86,0.75-1.561,1.59-2.03c0.57-0.31,1.32-0.51,2.28-0.58v-5.55C299.344,56.438,298.523,57.269,297.883,58.578z"/>
<path fill="#FFFFFF" d="M312.863,56.248v13.771c0,0.89-0.01,1.54-0.03,2.029l0.28-0.43l-0.3,4.581h4.99V56.248H312.863z
	 M310.793,74.709c-1.3,0-1.71-0.811-1.83-1.161c-0.109-0.319-0.22-0.96-0.22-3.359v-13.94h-4.93v13.811
	c0,2.279,0.06,3.239,0.109,3.649c0.061,0.5,0.23,1.001,0.49,1.472c0.23,0.408,0.59,0.738,1.101,1c0.54,0.279,1.26,0.42,2.14,0.42
	c0.75,0,1.41-0.15,1.97-0.441c0.55-0.289,1.01-0.729,1.4-1.33l0.09-0.129C311.014,74.709,310.903,74.709,310.793,74.709z"/>
<path fill="#FFFFFF" d="M327.083,56.248h-4.79v19.951h4.73V61.988c0-0.51,0.01-0.94,0.01-1.29l-0.22,0.35L327.083,56.248z
	 M336.033,57.878c-0.88-1.359-2.04-2.02-3.54-2.02c-0.79,0-1.46,0.16-2.06,0.49c-0.561,0.31-1.061,0.79-1.48,1.41
	c0.08-0.011,0.17-0.021,0.26-0.021c0.95,0,1.65,0.53,1.87,1.41c0.09,0.35,0.19,1.14,0.19,4.11v12.94h4.74V62.898
	c0-2.65,0.14-3.43,0.26-3.8c0.06-0.181,0.13-0.34,0.22-0.49L336.033,57.878z M344.733,57.969c-0.15-0.57-0.521-1.061-1.101-1.471
	c-0.6-0.43-1.39-0.64-2.35-0.64c-0.72,0-1.36,0.16-1.95,0.49c-0.55,0.31-1.069,0.79-1.54,1.43c0.12-0.03,0.25-0.04,0.38-0.04
	c0.931,0,1.631,0.521,1.881,1.39c0.109,0.381,0.239,1.15,0.239,3.771v13.301h4.73V61.608
	C345.023,59.488,344.873,58.458,344.733,57.969z"/>
<path fill="#FFFFFF" d="M371.863,57.969c-0.16-0.57-0.52-1.051-1.11-1.471c-0.59-0.43-1.38-0.64-2.35-0.64
	c-0.72,0-1.36,0.16-1.94,0.49c-0.56,0.31-1.08,0.79-1.55,1.43c0.12-0.03,0.25-0.04,0.391-0.04c0.92,0,1.619,0.521,1.869,1.39
	c0.12,0.381,0.24,1.15,0.24,3.771v13.301h4.74V61.608C372.153,59.908,372.054,58.679,371.863,57.969z M363.153,57.878
	c-0.88-1.359-2.03-2.02-3.54-2.02c-0.78,0-1.46,0.16-2.05,0.49c-0.57,0.31-1.07,0.79-1.49,1.41c0.08-0.011,0.17-0.021,0.26-0.021
	c0.95,0,1.65,0.53,1.87,1.41c0.09,0.35,0.2,1.14,0.2,4.11v12.94h4.729V62.898c0-2.65,0.141-3.42,0.261-3.8
	c0.06-0.181,0.14-0.34,0.229-0.49L363.153,57.878z M354.213,56.248h-4.8v19.951h4.74V60.708l-0.22,0.34L354.213,56.248z"/>
<path fill="#FFFFFF" d="M390.253,65.618v-1.91c0-1.979-0.229-3.52-0.68-4.56c-0.42-0.98-1.16-1.75-2.24-2.351
	c-1.1-0.63-2.56-0.939-4.319-0.939c-1.44,0-2.71,0.26-3.801,0.78c-1.02,0.5-1.739,1.18-2.17,2.09c-0.47,0.96-0.71,2.34-0.71,4.1v6.4
	c0,1.53,0.11,2.7,0.32,3.46c0.2,0.7,0.56,1.359,1.09,1.96c0.5,0.58,1.25,1.051,2.21,1.4c1,0.359,2.2,0.551,3.54,0.551
	c1.37,0,2.51-0.191,3.38-0.551c0.86-0.35,1.53-0.85,2.08-1.551c0.561-0.71,0.92-1.37,1.061-1.95c0.159-0.649,0.239-1.619,0.239-2.89
	v-0.62h-4.58v1.891c0,1.27-0.109,2.109-0.359,2.63c-0.2,0.43-0.72,1.15-1.96,1.15c-1.08,0-1.561-0.61-1.75-0.971
	c-0.23-0.45-0.33-1.16-0.33-2.38v-5.74H390.253z M381.273,61.438c0-1.8,0.12-2.34,0.24-2.65c0.159-0.39,0.609-1.05,1.819-1.05
	c0.811,0,1.431,0.42,1.71,1.15c0.12,0.3,0.25,0.88,0.25,2.55v2.6h-4.02V61.438z"/>
<path fill="#FFFFFF" d="M401.083,58.578l-2.42,4.96l0.7-7.29h-4.84v19.951h4.939v-7.661c0-2.97,0.131-3.88,0.23-4.31
	c0.2-0.86,0.75-1.561,1.59-2.03c0.57-0.31,1.32-0.51,2.28-0.58v-5.55C402.543,56.438,401.724,57.269,401.083,58.578z"/>
<path fill="#FFFFFF" d="M419.073,67.658c-0.36-0.479-1.28-1.28-3.6-2.37c-1.591-0.76-2.63-1.33-3.181-1.75
	c-0.66-0.51-1.06-1.01-1.22-1.529c-0.13-0.421-0.19-0.98-0.19-1.78c0-0.73,0.171-1.3,0.511-1.73c0.26-0.34,0.77-0.76,1.66-0.76
	c1.189,0,1.649,0.63,1.81,1c0.14,0.31,0.27,0.81,0.27,2.34v0.19h4.15v-0.28c0-1.27-0.08-1.9-0.15-2.2
	c-0.06-0.24-0.239-0.64-0.789-1.229c-0.45-0.49-1.141-0.891-2.04-1.2c-0.95-0.33-2.131-0.5-3.53-0.5c-1.391,0-2.61,0.2-3.641,0.61
	c-0.93,0.359-1.59,0.869-1.949,1.489c-0.271,0.471-0.59,1.431-0.59,3.38c0,1.07,0.189,2,0.569,2.761c0.2,0.39,0.891,1.26,3.311,2.56
	c3.479,1.87,4.029,2.28,4.27,2.53c0.47,0.49,0.66,1.29,0.66,2.67c0,1.04-0.16,1.7-0.51,2.13c-0.4,0.48-1,0.721-1.811,0.721
	c-0.85,0-1.52-0.411-1.83-1.121c-0.149-0.34-0.319-0.949-0.319-2.71v-0.39h-4.15v0.06c0,1.66,0.2,2.891,0.59,3.641
	c0.36,0.69,1.061,1.261,2.09,1.69c1.131,0.48,2.521,0.721,4.141,0.721c1.439,0,2.68-0.221,3.68-0.65c0.92-0.4,1.55-0.939,1.93-1.651
	c0.4-0.77,0.601-1.97,0.601-3.579C419.813,69.349,419.563,68.318,419.073,67.658z"/>
<path fill="#FFFFFF" d="M434.033,67.948c-0.9-7.33-1.27-10.39-1.42-11.7h-3.94l2.681,19.951h3.7L434.033,67.948z M446.173,56.248
	c-0.75,4.33-1.229,8.24-1.439,11.63l-1.99,0.061l-1.3-11.69h-3.97c-1.101,8.66-1.4,11.141-1.45,11.67l-0.79,8.281h1.939l0.62-3.921
	c0.33-1.94,0.59-3.88,0.78-5.78l0.87-8.95l1.11,8.931c0.489,3.88,0.93,7.149,1.31,9.721h5.79l2.52-19.951H446.173z"/>
<path fill="#FFFFFF" d="M466.823,59.769c-0.18-0.62-0.53-1.25-1.04-1.851c-0.5-0.59-1.24-1.08-2.2-1.46
	c-0.989-0.399-2.21-0.6-3.64-0.6c-1.67,0-3.03,0.3-4.061,0.9c-1,0.59-1.68,1.329-2.05,2.27c-0.41,1.03-0.62,2.51-0.62,4.41v5.63
	c0,1.76,0.12,3.08,0.351,3.93c0.21,0.78,0.55,1.431,1.04,1.971c0.46,0.52,1.14,0.91,2.029,1.18c0.961,0.301,2.181,0.451,3.601,0.451
	c1.26,0,2.37-0.17,3.32-0.512c0.899-0.328,1.609-0.809,2.17-1.479c0.569-0.671,0.939-1.391,1.109-2.151
	c0.19-0.84,0.29-2.229,0.29-4.12v-5.38C467.123,61.509,467.023,60.438,466.823,59.769z M462.184,71.429c0,1.149-0.09,1.83-0.29,2.27
	c-0.29,0.64-0.92,1.011-1.73,1.011c-0.79,0-1.42-0.391-1.72-1.07c-0.13-0.311-0.29-0.86-0.29-2.431v-9.899
	c0-1.681,0.15-2.23,0.3-2.55c0.3-0.65,0.93-1.021,1.73-1.021c0.81,0,1.439,0.38,1.729,1.05c0.13,0.311,0.271,0.851,0.271,2.521
	V71.429z"/>
<path fill="#FFFFFF" d="M477.974,58.578l-2.42,4.96l0.689-7.29h-4.84v19.951h4.94v-7.661c0-2.97,0.14-3.88,0.229-4.31
	c0.21-0.86,0.76-1.561,1.59-2.03c0.57-0.31,1.32-0.51,2.29-0.58v-5.55C479.423,56.438,478.613,57.269,477.974,58.578z"/>
<path fill="#FFFFFF" d="M483.993,51.429v24.771h5.15V51.429H483.993z"/>
<path fill="#FFFFFF" d="M502.483,51.429v7.67l-0.271-0.271c0.181,0.431,0.271,1.04,0.271,1.95v10.15c0,1.449-0.11,2.109-0.23,2.489
	l0.23-0.22v3.001h4.939V51.429H502.483z M498.673,73.729c-0.21-0.44-0.31-1.12-0.31-2.2v-10.75c0-1.1,0.11-1.74,0.35-2.17
	c0.19-0.32,0.66-0.87,1.7-0.87c0.37,0,0.67,0.08,0.91,0.18l-0.56-0.569c-0.48-0.5-1.03-0.88-1.62-1.12
	c-0.59-0.25-1.25-0.37-1.98-0.37c-0.91,0-1.67,0.21-2.31,0.63c-0.601,0.41-0.99,0.85-1.141,1.33c-0.13,0.42-0.29,1.33-0.29,3.29
	v10.27c0,1.881,0.16,2.79,0.29,3.21c0.16,0.5,0.53,0.951,1.141,1.371c0.62,0.43,1.35,0.641,2.229,0.641
	c0.66,0,1.28-0.141,1.891-0.41c0.62-0.281,1.22-0.711,1.8-1.291l0.29-0.279c-0.2,0.061-0.431,0.09-0.7,0.09
	C499.594,74.709,498.983,74.349,498.673,73.729z"/>
<path fill="#FFFFFF" d="M528.203,56.248c-0.74,4.33-1.22,8.24-1.43,11.63l-1.99,0.061l-1.31-11.69h-3.971
	c-1.09,8.66-1.39,11.141-1.439,11.67l-0.8,8.281h1.939l0.63-3.921c0.33-1.93,0.59-3.87,0.771-5.78l0.88-8.93l1.11,8.91
	c0.489,3.899,0.93,7.17,1.31,9.721h5.79l2.52-19.951H528.203z M516.073,67.948c-0.9-7.33-1.27-10.39-1.42-11.7h-3.94l2.67,19.951
	h3.711L516.073,67.948z"/>
<path fill="#FFFFFF" d="M535.463,56.248v19.951h5.141V56.248H535.463z M535.463,51.429v1.479h5.141v-1.479H535.463z"/>
<path fill="#FFFFFF" d="M553.943,51.429v7.67l-0.271-0.271c0.19,0.431,0.271,1.04,0.271,1.95v10.15c0,1.449-0.1,2.109-0.22,2.489
	l0.22-0.22v3.001h4.939V51.429H553.943z M550.133,73.729c-0.21-0.44-0.3-1.12-0.3-2.2v-10.75c0-1.1,0.101-1.74,0.351-2.17
	c0.18-0.32,0.649-0.87,1.689-0.87c0.38,0,0.681,0.08,0.92,0.18l-0.569-0.569c-0.48-0.5-1.03-0.88-1.62-1.12
	c-0.59-0.25-1.25-0.37-1.971-0.37c-0.92,0-1.68,0.21-2.319,0.63c-0.601,0.41-0.98,0.85-1.141,1.33c-0.13,0.42-0.279,1.33-0.279,3.29
	v10.27c0,1.881,0.149,2.79,0.29,3.21c0.149,0.5,0.52,0.951,1.13,1.371c0.62,0.43,1.35,0.641,2.229,0.641
	c0.67,0,1.28-0.141,1.891-0.41c0.62-0.281,1.229-0.711,1.8-1.291l0.29-0.279c-0.2,0.061-0.43,0.09-0.7,0.09
	C551.063,74.709,550.443,74.349,550.133,73.729z"/>
<path fill="#FFFFFF" d="M577.094,65.618v-1.91c0-1.979-0.23-3.51-0.69-4.56c-0.42-0.98-1.15-1.75-2.23-2.351
	c-1.109-0.63-2.56-0.939-4.329-0.939c-1.431,0-2.711,0.26-3.79,0.78c-1.03,0.5-1.74,1.18-2.181,2.09c-0.47,0.96-0.71,2.34-0.71,4.1
	v6.4c0,1.53,0.11,2.689,0.33,3.46c0.2,0.71,0.561,1.37,1.08,1.96c0.51,0.58,1.25,1.051,2.21,1.4c1.01,0.359,2.2,0.551,3.54,0.551
	c1.38,0,2.521-0.191,3.39-0.551c0.851-0.35,1.53-0.85,2.08-1.551c0.561-0.71,0.92-1.37,1.061-1.95c0.16-0.649,0.24-1.619,0.24-2.89
	v-0.62h-4.58v1.891c0,1.29-0.11,2.1-0.36,2.64c-0.2,0.42-0.72,1.141-1.97,1.141c-1.08,0-1.551-0.601-1.74-0.971
	c-0.24-0.45-0.34-1.16-0.34-2.38v-5.74H577.094z M568.104,61.438c0-1.8,0.12-2.34,0.25-2.65c0.16-0.39,0.609-1.05,1.819-1.05
	c0.811,0,1.431,0.42,1.71,1.15c0.12,0.319,0.25,0.88,0.25,2.55v2.6h-4.029V61.438z"/>
<path fill="#FFFFFF" d="M580.733,72.738v3.461h3.24v-3.461H580.733z"/>
</svg>
