<?xml version="1.0" encoding="utf-8"?>
<!-- Generator: Adobe Illustrator 16.0.0, SVG Export Plug-In . SVG Version: 6.00 Build 0)  -->
<!DOCTYPE svg PUBLIC "-//W3C//DTD SVG 1.1//EN" "http://www.w3.org/Graphics/SVG/1.1/DTD/svg11.dtd">
<svg version="1.1" id="圖層_1" xmlns="http://www.w3.org/2000/svg" xmlns:xlink="http://www.w3.org/1999/xlink" x="0px" y="0px"
	 width="841.89px" height="141.73px" viewBox="0 0 841.89 141.73" enable-background="new 0 0 841.89 141.73" xml:space="preserve">
<rect x="-7" y="-81" display="none" fill="#231815" width="936" height="265"/>
<polygon display="none" fill="#FFFFFF" points="257.282,102.121 257.282,102.119 257.281,102.119 "/>
<path display="none" fill="#FFFFFF" d="M230.691,28.37c-0.05-0.01-0.109-0.029-0.17-0.04c0.061,0.011,0.12,0.03,0.181,0.05
	C230.712,28.37,230.691,28.37,230.691,28.37z"/>
<path id="G" fill="#FFFFFF" d="M90.56,55.735v-0.971c0-7.109-0.75-12.52-2.229-16.1c-1.36-3.27-4.46-6.22-9.22-8.75
	c-4.94-2.63-11.341-3.97-19.011-3.97c-7.72,0-14.04,1.521-18.79,4.51c-4.58,2.89-7.359,5.99-8.25,9.21
	c-1.029,3.69-1.56,9.86-1.56,18.34v27.32c0,6.131,0.26,10.75,0.76,13.73c0.45,2.68,1.61,5.301,3.45,7.781
	c1.82,2.459,4.59,4.59,8.229,6.318c3.681,1.75,7.69,2.631,11.921,2.631c3.479,0,6.489-0.609,8.97-1.82
	c2.45-1.199,4.43-2.959,6.05-5.369l3.19-4.752l3.939,10.012h12.55V70.485H63.77v7.98h5.65v13.91c0,4.85-0.45,8.02-1.41,9.959
	c-0.72,1.451-2.56,3.891-6.84,3.891c-4.09,0-5.79-2.301-6.44-3.68c-0.84-1.77-1.22-4.68-1.22-9.439v-44.14
	c0-6.881,0.66-9.011,1.3-10.19c0.66-1.21,2.351-3.261,6.16-3.261c4.36,0,5.99,2.431,6.57,3.871c0.47,1.18,1.02,3.489,1.02,11v5.35
	H90.56z"/>
<path id="R_1_" fill="#FFFFFF" d="M160.52,75.654c-1.01-1.049-3.51-2.57-9.64-3.87l-20.17-4.271l20.55-1.649
	c6.561-0.53,9.2-2.13,10.26-3.38c0.9-1.07,2.41-4.11,2.41-12.49c0-7.09-1.25-12.21-3.74-15.23c-2.51-3.039-5.67-4.879-9.67-5.629
	c-4.479-0.83-13.319-1.25-26.29-1.25h-16.83v85.97h22.011V72.385h3c5.02,0,7.96,0.9,9.52,2.92c0.99,1.279,1.99,3.58,1.99,10.99
	v27.561h20.01V92.594c0-9.67-0.41-12.16-0.58-12.789C163.12,79.014,162.45,77.645,160.52,75.654z M129.41,37.615h3
	c3.989,0,6.68,0.62,8.479,1.96c2.04,1.52,3.03,4.189,3.03,8.141v5.06c0,3.63-0.38,8.03-3.38,9.78c-1.771,1.029-4.351,1.51-8.13,1.51
	h-3V37.615z"/>
<g id="drumAll">
	<g id="drum">
		<g id="drumOuside">
			<path fill="#FFFFFF" d="M257.63,102.893l-0.348-0.771c0-0.002-0.001-0.002-0.001-0.002s0,0,0.001,0l-2.25-4.996
				c-0.383,0.51-0.762,1.025-1.171,1.516c-0.316,0.391-0.653,0.764-0.987,1.139l0.373,4.322c0.038,0.447,0.083,0.891,0.127,1.336
				c0.099,0.986,0.2,2.004,0.231,3.027c0.013,0.424-0.025,0.828-0.094,1.219c1.397,0.291,2.901-0.104,3.979-1.182
				c0.838-0.838,1.26-1.93,1.276-3.027c-0.208-0.459-0.408-0.916-0.604-1.367C257.988,103.701,257.812,103.295,257.63,102.893z"/>
			<path fill="#FFFFFF" d="M268.832,75.449c2.42,0,4.38-1.949,4.38-4.37c0-2.42-1.96-4.37-4.37-4.37c-0.11,0-0.21,0-0.32,0.01
				c-0.85-10.149-4.81-19.42-10.93-26.84c0.1-0.09,0.21-0.18,0.31-0.279c1.71-1.711,1.71-4.48,0-6.19s-4.47-1.71-6.18,0
				c-0.09,0.09-0.18,0.19-0.26,0.29c-1.292-1.092-2.651-2.096-4.049-3.043c0.285,2.252,0.585,4.502,0.875,6.754
				c1.481,1.249,2.901,2.57,4.203,3.999c0.471,0.521,0.931,1.05,1.37,1.59c1.341,1.62,2.561,3.341,3.66,5.14
				c0.37,0.601,0.72,1.211,1.05,1.83c0.341,0.621,0.66,1.25,0.971,1.891c0.38,0.8,0.739,1.6,1.08,2.43c0.33,0.82,0.64,1.65,0.93,2.5
				c0.229,0.68,0.45,1.36,0.64,2.061c1.08,3.8,1.66,7.82,1.66,11.97c0,4.149-0.58,8.17-1.66,11.969
				c-0.189,0.701-0.41,1.381-0.64,2.061c-0.202,0.592-0.437,1.172-0.664,1.756l2.816,5.66c2.55-5.16,4.218-10.832,4.777-16.826
				C268.602,75.439,268.712,75.449,268.832,75.449z"/>
			<path fill="#FFFFFF" d="M243.271,108.48l-0.026-0.555c-6.71,4.197-14.641,6.625-23.134,6.625
				c-24.149,0-43.729-19.582-43.729-43.731c0-24.149,19.58-43.74,43.729-43.74c2.023,0,4.006,0.146,5.952,0.408
				c0.446-0.79,1.198-1.255,2.109-1.255c0.52,0,1.049,0.152,1.574,0.454c0.923,0.532,1.646,1.213,2.163,2.017
				c3.555,0.988,6.926,2.421,10.058,4.229c0.002-0.776,0.013-1.554,0.011-2.331c-0.002-0.41-0.217-0.906-0.427-1.338
				c-0.382-0.773-0.591-1.56-0.642-2.346c-5.061-2.402-10.603-3.966-16.438-4.488c0.01-0.07,0.01-0.141,0.01-0.2
				c0-2.421-1.95-4.38-4.37-4.38c-2.409,0-4.37,1.959-4.37,4.38c0,0.06,0.011,0.13,0.011,0.2c-10.13,0.899-19.37,4.91-26.75,11.06
				c-0.061-0.069-0.12-0.14-0.19-0.21c-1.71-1.71-4.479-1.71-6.189,0s-1.71,4.48,0,6.18c0.069,0.07,0.14,0.131,0.21,0.2
				c-6.16,7.36-10.17,16.57-11.101,26.681c-0.109-0.011-0.22-0.021-0.33-0.021c-2.42,0-4.38,1.96-4.38,4.38
				c0,2.41,1.96,4.371,4.38,4.371c0.101,0,0.21-0.012,0.311-0.021c0.88,10.121,4.84,19.361,10.96,26.75
				c-0.07,0.061-0.15,0.131-0.22,0.201c-1.711,1.709-1.711,4.48,0,6.189c1.71,1.701,4.479,1.701,6.18,0
				c0.07-0.07,0.13-0.139,0.189-0.199c7.341,6.189,16.54,10.24,26.65,11.199c-0.01,0.1-0.02,0.211-0.02,0.32
				c0,2.42,1.96,4.371,4.38,4.371c2.409,0,4.37-1.951,4.37-4.371c0-0.09-0.011-0.189-0.011-0.279
				c7.515-0.627,14.536-2.971,20.688-6.627c-0.532-0.516-0.921-1.18-1.172-1.717C243.35,110.131,243.308,109.254,243.271,108.48z"/>
		</g>
		<g id="drumInside">
			<path fill="#FFFFFF" d="M258.962,69.36c-0.005-0.119-0.015-0.234-0.02-0.353c-0.007-0.153-0.018-0.306-0.025-0.458
				c-0.012-0.213-0.018-0.428-0.035-0.64c-0.021-0.31-0.05-0.61-0.08-0.91c-0.003-0.027-0.006-0.054-0.009-0.081
				c-0.006-0.061-0.013-0.119-0.019-0.179c-0.022-0.228-0.044-0.456-0.072-0.681c-0.04-0.319-0.08-0.629-0.131-0.939
				c-0.004-0.034-0.012-0.067-0.016-0.102c-0.016-0.117-0.038-0.232-0.057-0.349c-0.038-0.243-0.074-0.488-0.117-0.729
				c-0.045-0.27-0.102-0.54-0.157-0.81c-0.015-0.069-0.025-0.14-0.041-0.208c-0.005-0.021-0.008-0.042-0.012-0.063
				c-0.09-0.471-0.2-0.93-0.32-1.4c-0.022-0.097-0.047-0.189-0.071-0.284c-0.009-0.038-0.019-0.075-0.027-0.112
				c-0.042-0.16-0.083-0.324-0.121-0.483c-0.08-0.26-0.15-0.53-0.23-0.79c-0.033-0.121-0.076-0.243-0.114-0.364
				c-0.037-0.12-0.073-0.24-0.112-0.36c-0.029-0.088-0.054-0.177-0.083-0.266c-0.09-0.289-0.19-0.58-0.29-0.869
				c-0.038-0.111-0.082-0.219-0.122-0.328c-0.046-0.124-0.092-0.249-0.14-0.374c-0.02-0.053-0.038-0.104-0.059-0.158
				c-0.1-0.28-0.21-0.56-0.33-0.851c-0.032-0.078-0.068-0.155-0.101-0.234c-0.114-0.273-0.233-0.545-0.353-0.816
				c-0.09-0.206-0.174-0.415-0.267-0.619c-0.087-0.18-0.174-0.364-0.261-0.548c-0.01-0.021-0.019-0.04-0.028-0.06
				c-0.033-0.07-0.067-0.143-0.101-0.212c-0.141-0.271-0.271-0.54-0.41-0.81c-0.057-0.108-0.119-0.214-0.177-0.321
				c-0.145-0.269-0.292-0.536-0.441-0.802c-0.086-0.152-0.165-0.307-0.252-0.457c-0.066-0.113-0.138-0.224-0.204-0.336
				c-0.137-0.23-0.277-0.459-0.418-0.688c-0.094-0.151-0.183-0.306-0.278-0.457c-0.01-0.02-0.02-0.04-0.04-0.061
				c-0.08-0.124-0.167-0.243-0.249-0.367c-0.164-0.248-0.331-0.494-0.5-0.738c-0.167-0.24-0.337-0.479-0.51-0.716
				c-0.213-0.292-0.429-0.581-0.649-0.866c-0.062-0.08-0.119-0.163-0.182-0.242c-0.067-0.086-0.139-0.168-0.207-0.252
				c-0.248-0.311-0.501-0.619-0.759-0.925c-0.059-0.07-0.114-0.143-0.174-0.213c-0.098-0.118-0.201-0.229-0.302-0.343
				c0,0.002,0,0.004,0,0.006c0.156,1.184,0.304,2.366,0.46,3.549l0.994,9.201l0.137,2.137c0.005,0.225,0.008,0.396,0.022,0.555
				l0.622,7.205l6.268,12.595l0.004,0.008c0.022-0.09,0.041-0.182,0.063-0.273c0.042-0.174,0.093-0.344,0.131-0.52
				c0.08-0.311,0.141-0.609,0.211-0.92c0.114-0.596,0.218-1.191,0.312-1.791c0.016-0.1,0.031-0.199,0.046-0.299
				c0.02-0.137,0.044-0.273,0.063-0.41c0.06-0.41,0.109-0.83,0.149-1.25c0.002-0.014,0.002-0.027,0.004-0.041
				c0.014-0.129,0.022-0.264,0.035-0.395c0.029-0.307,0.061-0.611,0.081-0.924c0.015-0.18,0.021-0.363,0.03-0.545
				c0.007-0.117,0.015-0.232,0.02-0.35c0.002-0.066,0.009-0.129,0.011-0.195c0.029-0.55,0.039-1.101,0.039-1.661
				C258.991,70.33,258.981,69.84,258.962,69.36z"/>
			<path fill="#FFFFFF" d="M241.965,47.19l-0.021-0.119l-0.098-2.938l0.037-0.457c0.017-0.164,0.029-0.281,0.03-0.397l0.021-2.664
				c0.005-0.651,0.003-1.302,0.008-1.953c0-0.003,0-0.007,0-0.011c-0.192-0.131-0.392-0.256-0.587-0.383
				c-0.1-0.064-0.194-0.135-0.295-0.198c-0.107-0.067-0.22-0.134-0.328-0.202c-0.258-0.16-0.518-0.32-0.778-0.479
				c-0.099-0.059-0.195-0.121-0.293-0.18c-0.106-0.061-0.219-0.115-0.326-0.176c-0.519-0.293-1.045-0.579-1.579-0.852
				c-0.138-0.07-0.275-0.144-0.414-0.213c-0.691-0.343-1.391-0.67-2.102-0.97c-0.125-0.05-0.251-0.101-0.377-0.151
				c-0.273-0.109-0.548-0.219-0.822-0.328c-0.043-0.017-0.087-0.031-0.129-0.047c-0.009-0.004-0.018-0.007-0.026-0.01
				c0.009,0.004,0.018,0.007,0.026,0.01c1.352,2.419,2.713,4.832,4.082,7.24l1.359,2.392c0.057,0.1,0.126,0.196,0.223,0.335
				l0.207,0.298l1.43,2.796c0.145,0.397,0.382,0.803,0.656,1.271l0.134,0.229l-0.001-0.038l0.006-0.407
				C242.02,48.053,242.029,47.592,241.965,47.19z"/>
			<path fill="#FFFFFF" d="M241.285,66.583l-1.344-2.986c-0.054-0.121-0.117-0.24-0.186-0.369L239.7,63.12l-0.921-1.922
				l-3.622-8.532c-2.375-5.993-4.758-11.962-7.163-17.921c-0.122-0.305-0.422-0.632-0.67-0.882
				c-0.439-0.445-0.789-0.925-1.065-1.427c0.03,0.006,0.061,0.008,0.091,0.012c-0.031-0.005-0.063-0.012-0.094-0.016
				c-0.794-0.127-1.597-0.229-2.406-0.306c-0.043-0.005-0.085-0.013-0.128-0.017c-0.266-0.024-0.535-0.035-0.803-0.055
				c-0.322-0.021-0.643-0.051-0.966-0.064c-0.113-0.006-0.229-0.005-0.343-0.009c-0.497-0.019-0.995-0.038-1.497-0.038
				c-0.497,0-0.989,0.02-1.481,0.037c-0.1,0.004-0.199,0.004-0.298,0.008c-0.344,0.016-0.683,0.043-1.022,0.066
				c-0.227,0.016-0.456,0.025-0.68,0.045c-0.072,0.006-0.141,0.016-0.213,0.023c-0.302,0.028-0.599,0.064-0.896,0.1
				c-0.199,0.023-0.404,0.042-0.602,0.066c-0.119,0.015-0.239,0.039-0.358,0.055c-0.259,0.036-0.518,0.078-0.776,0.12
				c-0.186,0.03-0.371,0.053-0.556,0.085c-0.173,0.031-0.348,0.074-0.521,0.107c-0.288,0.056-0.576,0.112-0.863,0.177
				c-0.092,0.021-0.184,0.034-0.275,0.056c-0.279,0.051-0.55,0.121-0.819,0.19c-0.076,0.02-0.152,0.04-0.229,0.06
				c-0.09,0.023-0.18,0.047-0.271,0.07c-0.104,0.026-0.207,0.053-0.312,0.08c-0.47,0.131-0.93,0.26-1.39,0.4
				c-0.07,0.02-0.14,0.04-0.22,0.07c-0.53,0.17-1.061,0.35-1.58,0.539c-0.304,0.111-0.598,0.236-0.896,0.354
				c-0.291,0.115-0.587,0.222-0.874,0.346c-0.146,0.062-0.288,0.136-0.434,0.2c-0.552,0.24-1.099,0.49-1.636,0.756
				c-0.169,0.083-0.335,0.171-0.502,0.257c-0.5,0.257-0.992,0.523-1.479,0.798c-0.121,0.069-0.248,0.13-0.369,0.199
				c-0.11,0.066-0.22,0.137-0.33,0.203c-0.229,0.139-0.455,0.277-0.681,0.418c-0.129,0.08-0.261,0.158-0.389,0.239
				c-0.097,0.062-0.189,0.131-0.285,0.193c-0.354,0.229-0.703,0.468-1.05,0.712c-0.144,0.1-0.293,0.191-0.436,0.295
				c-0.148,0.107-0.293,0.219-0.44,0.327c-0.059,0.044-0.117,0.087-0.175,0.131c-0.081,0.062-0.165,0.119-0.245,0.182
				c-0.279,0.22-0.56,0.44-0.84,0.66c-0.047,0.038-0.092,0.081-0.14,0.12c-0.501,0.406-0.996,0.832-1.48,1.27
				c-0.087,0.076-0.171,0.157-0.256,0.235c-0.071,0.064-0.146,0.127-0.214,0.194c-0.29,0.274-0.579,0.553-0.868,0.837
				c-0.041,0.04-0.081,0.077-0.122,0.117c-0.029,0.029-0.06,0.057-0.09,0.087c-0.189,0.189-0.37,0.369-0.55,0.569
				c-0.093,0.099-0.181,0.202-0.272,0.301c-0.258,0.278-0.514,0.56-0.765,0.845c-0.137,0.154-0.271,0.311-0.404,0.467
				c-0.267,0.312-0.527,0.628-0.784,0.948c-0.07,0.088-0.146,0.171-0.215,0.26c-0.061,0.077-0.114,0.158-0.175,0.235
				c-0.319,0.413-0.629,0.834-0.933,1.259c-0.111,0.157-0.226,0.313-0.336,0.473c-0.349,0.506-0.686,1.021-1.01,1.544
				c-0.044,0.07-0.091,0.138-0.134,0.208c-0.38,0.62-0.743,1.252-1.088,1.894c-0.026,0.049-0.05,0.099-0.075,0.146
				c-0.308,0.579-0.601,1.166-0.879,1.761c-0.022,0.048-0.049,0.093-0.07,0.141c-0.133,0.292-0.265,0.585-0.391,0.877
				c-0.016,0.038-0.034,0.075-0.05,0.112c-0.102,0.227-0.19,0.451-0.28,0.677c-0.025,0.064-0.056,0.13-0.08,0.194
				c-0.032,0.079-0.059,0.158-0.09,0.238c-0.163,0.41-0.321,0.82-0.466,1.23c-0.01,0.03-0.023,0.061-0.034,0.091
				c-0.09,0.25-0.18,0.5-0.26,0.76c-0.035,0.1-0.063,0.2-0.095,0.3s-0.065,0.199-0.096,0.301c-0.049,0.15-0.091,0.307-0.137,0.46
				c-0.058,0.193-0.117,0.385-0.173,0.579c-0.026,0.095-0.047,0.188-0.072,0.283c-0.09,0.336-0.18,0.672-0.258,1.008
				c-0.159,0.643-0.298,1.289-0.422,1.941c-0.022,0.119-0.042,0.238-0.063,0.356c-0.105,0.585-0.199,1.173-0.276,1.767
				c-0.006,0.039-0.014,0.076-0.019,0.115c-0.01,0.07-0.02,0.14-0.029,0.21c-0.017,0.125-0.027,0.252-0.042,0.378
				c-0.028,0.242-0.057,0.485-0.08,0.73c-0.03,0.317-0.051,0.639-0.073,0.959c-0.011,0.171-0.027,0.34-0.035,0.512
				c-0.01,0.181-0.03,0.371-0.03,0.561c-0.001,0.032-0.002,0.064-0.003,0.096c-0.008,0.158-0.017,0.316-0.017,0.475
				c-0.006,0.207-0.007,0.41-0.011,0.614c-0.004,0.171-0.01,0.343-0.01,0.516c0,9.842,3.664,18.825,9.693,25.674
				c7.122,8.092,17.549,13.205,29.177,13.205c0.67,0,1.341-0.02,2-0.049c0.431-0.02,0.86-0.051,1.29-0.09
				c0.192-0.014,0.388-0.037,0.583-0.059c0.063-0.006,0.125-0.01,0.187-0.018c0.047-0.006,0.095-0.008,0.141-0.014
				c1.12-0.111,2.21-0.281,3.29-0.5c0.054-0.008,0.103-0.021,0.154-0.031c0.1-0.018,0.199-0.037,0.297-0.059
				c0.052-0.012,0.106-0.018,0.159-0.031c0.399-0.08,0.79-0.17,1.17-0.27c0.098-0.021,0.192-0.049,0.29-0.072
				c0.081-0.02,0.162-0.041,0.242-0.061c0.089-0.023,0.181-0.043,0.268-0.066c0.271-0.07,0.54-0.15,0.81-0.221
				c0.143-0.043,0.279-0.096,0.421-0.139c0.506-0.154,1.007-0.32,1.503-0.494c0.29-0.102,0.58-0.203,0.866-0.311
				c0.625-0.234,1.242-0.484,1.85-0.752c0.069-0.029,0.142-0.055,0.211-0.084c0.38-0.16,0.75-0.332,1.12-0.512
				c0.42-0.209,0.85-0.42,1.26-0.639c0.103-0.055,0.201-0.113,0.304-0.168c0.094-0.049,0.187-0.102,0.28-0.152
				c0.218-0.119,0.438-0.234,0.656-0.361c0.29-0.17,0.58-0.34,0.859-0.51c0.25-0.15,0.5-0.309,0.74-0.469
				c0.135-0.086,0.264-0.178,0.396-0.264c0.202-0.133,0.404-0.268,0.604-0.402c0.309-0.211,0.613-0.428,0.915-0.646v-0.004
				L241.285,66.583z"/>
		</g>
	</g>
	<g id="drumSticks">
		<g id="drumStick2">
			<path id="drumStick2-2" fill="#FFFFFF" d="M249.885,63.188l-0.13-0.261c-1.47-2.94-2.95-5.87-4.45-8.8l-2.02-3.9l-0.05-1.56
				l0.01-0.37c0.01-0.59,0.021-1.1-0.07-1.64l-0.09-2.81l0.03-0.361c0.02-0.209,0.03-0.359,0.04-0.51l0.02-2.729
				c0.021-3.32,0.051-6.64,0.04-9.96c0-0.66-0.279-1.32-0.56-1.88c-0.771-1.58-0.7-3.15,0.22-4.681c0.61-1.029,1.61-1.14,2.36-0.26
				c0.54,0.61,0.89,1.28,1.06,1.971l0.01,0.069c0.16,0.72,0.131,1.5-0.09,2.32c-0.14,0.479-0.27,1.05-0.199,1.59
				c0.81,6.38,1.64,12.75,2.479,19.12l0.99,9.16l0.13,2.109c0.01,0.211,0.01,0.4,0.03,0.58L249.885,63.188z"/>
			<path id="drumStick2-1" fill="#FFFFFF" d="M252.345,108.188c0.03,1.17-0.319,2.17-1.029,2.9c-0.73,0.76-1.811,1.189-2.971,1.189
				c0,0,0,0-0.01,0c-0.77,0-1.54-0.199-2.2-0.561c-0.46-0.27-0.93-0.859-1.31-1.67c-0.25-0.539-0.29-1.25-0.32-2.02l-1.77-37.21
				l7.91,17.58l1.34,15.5c0.04,0.451,0.09,0.9,0.13,1.352C252.215,106.217,252.315,107.207,252.345,108.188z"/>
		</g>
		<path id="drumStick1" fill="#FFFFFF" d="M267.675,106.047c-0.8,1.291-2.279,2.131-3.76,2.131c-1.45,0-2.649-0.779-3.38-2.191
			c-0.45-0.869-0.85-1.789-1.24-2.68c-0.18-0.42-0.359-0.83-0.54-1.24l-17.689-39.289c-0.061-0.131-0.13-0.271-0.21-0.42l-0.95-1.99
			l-3.61-8.49c-2.37-5.98-4.75-11.95-7.16-17.91c-0.199-0.51-0.59-0.939-0.939-1.29c-0.61-0.62-1.021-1.31-1.23-2.04v-0.01
			c-0.199-0.689-0.21-1.45-0.05-2.24c0.24-1.13,1.17-1.51,2.19-0.93c1.55,0.9,2.38,2.24,2.47,3.99c0.04,0.619,0.11,1.33,0.43,1.91
			c1.61,2.899,3.25,5.77,4.88,8.649l1.37,2.41c0.07,0.13,0.16,0.26,0.29,0.44l1.48,2.81c0.18,0.49,0.45,0.94,0.75,1.46l3.069,5.891
			c1.5,2.92,2.98,5.85,4.44,8.789l19.06,38.291c0.301,0.619,0.62,1.26,0.66,1.85C268.075,104.848,267.955,105.588,267.675,106.047z"
			/>
	</g>
</g>
<path id="O" fill="#FFFFFF" d="M334.06,43.535c-0.459-3.229-1.859-6.16-4.289-8.96c-2.43-2.811-5.73-4.95-9.801-6.38
	c-4.25-1.49-9.14-2.25-14.54-2.25c-5.689,0-10.71,0.8-14.92,2.37c-4.05,1.52-7.29,3.689-9.63,6.449c-2.33,2.761-3.67,5.711-4.11,9
	c-0.489,3.69-0.729,10.16-0.729,19.23v15.74c0,9.291,0.25,15.84,0.76,19.471c0.46,3.229,1.86,6.16,4.29,8.959
	c2.43,2.801,5.73,4.951,9.8,6.381c4.25,1.49,9.141,2.24,14.54,2.24c5.69,0,10.71-0.791,14.921-2.359
	c4.049-1.521,7.289-3.691,9.629-6.461c2.33-2.76,3.67-5.701,4.111-9c0.489-3.689,0.739-10.16,0.739-19.23v-15.74
	C334.83,53.715,334.57,47.165,334.06,43.535z M312.82,90.785c0,7.67-0.53,10.08-0.979,11.32c-0.971,2.619-3.331,4.119-6.48,4.119
	c-4.181,0-5.761-2.35-6.33-3.74c-0.49-1.199-0.99-3.449-0.99-11.02V48.514c0-7.17,0.88-9.25,1.83-10.43
	c0.939-1.17,2.689-2.57,5.689-2.57c3.92,0,5.54,2.211,6.15,3.521c0.52,1.12,1.11,3.2,1.11,9.479V90.785z"/>
<path id="V" fill="#FFFFFF" d="M388,27.885l-1.64,14.439c-1.61,13.641-3.16,29.48-4.6,47.109h-5.98
	c-1.4-16.789-3.75-37.489-6.98-61.548h-23.34l15.12,85.97h37.46l13.32-85.97H388z"/>
<path id="E_1_" fill="#FFFFFF" d="M444.589,101.445V75.225h17.49v-11.5h-17.49v-23.44h18.691V27.885h-40.701v85.97h42.561v-12.41
	H444.589z"/>
<path id="S" fill="#FFFFFF" d="M530.659,75.605c-2.029-2.541-7.6-7.161-22.57-14.75c-4.979-2.511-7.879-4.66-9.139-6.761
	c-1.25-2-1.881-4.789-1.881-8.47c0-3.079,0.621-5.399,1.881-7.12c1-1.369,2.9-2.99,6.24-2.99c3.148,0,4.85,1.351,5.709,2.48
	c1.141,1.49,1.621,3.85,1.621,7.91v3.811h20.01v-0.631c0-8.43-1.16-12.32-2.131-14.109c-1.311-2.391-4.209-4.49-8.641-6.221
	c-4.75-1.859-10.639-2.81-17.5-2.81c-6.238,0-11.6,0.86-15.93,2.55c-4.09,1.6-7.039,3.78-8.789,6.48
	c-1.781,2.75-2.68,7.399-2.68,13.82c0,4.42,0.66,8.039,1.939,10.76c1.279,2.709,2.879,4.83,4.77,6.31
	c2.131,1.681,6.65,4.479,13.461,8.331c7.33,4.109,11.68,6.898,13.68,8.77c2.42,2.34,3.539,6.4,3.539,12.82
	c0,3.129-0.639,5.529-1.939,7.33c-1.029,1.42-3.01,3.109-6.58,3.109c-2.859,0-4.98-0.91-6.301-2.689
	c-1.17-1.57-1.689-4.18-1.689-8.441v-8.189h-20.01v3.02c0,6.451,0.74,11.41,2.211,14.76c1.33,3.041,4.318,5.641,8.91,7.742
	c4.879,2.229,10.92,3.359,17.939,3.359c6.41,0,12.07-0.98,16.83-2.93c4.49-1.83,7.5-4.031,8.939-6.531
	c1.529-2.629,2.301-7,2.301-12.99C534.86,85.064,533.44,79.094,530.659,75.605z"/>
<path id="H" fill="#FFFFFF" d="M586.021,27.885v32.89H571.64v-32.89h-22v85.97h22V75.225h14.381v38.631h22.01v-85.97H586.021z"/>
<path id="A" fill="#FFFFFF" d="M668.159,27.885H652.96l1.6,17.229c1.42,15.22,2.85,28.17,4.25,38.5l0.471,3.41h-16.361l0.291-3.271
	c0.73-8.17,2.549-21.24,5.4-38.849l2.76-17.02h-18.6l-13.352,85.97h22.74l1.691-16.531h15.459l1.51,16.531h22.311L668.159,27.885z"
	/>
<path id="R" fill="#FFFFFF" d="M747.569,75.654c-1.01-1.049-3.51-2.57-9.641-3.87l-20.17-4.271l20.551-1.649
	c6.561-0.53,9.199-2.13,10.26-3.38c0.9-1.07,2.41-4.11,2.41-12.49c0-7.09-1.25-12.21-3.74-15.23c-2.51-3.039-5.67-4.879-9.67-5.629
	c-4.48-0.83-13.32-1.25-26.289-1.25h-16.83v85.97h22.01V72.385h3c5.02,0,7.949,0.9,9.52,2.92c0.99,1.279,1.99,3.58,1.99,10.99
	v27.561h20.01V92.594c0-9.67-0.41-12.16-0.58-12.789C750.169,79.014,749.499,77.645,747.569,75.654z M716.46,37.615h3
	c3.99,0,6.689,0.62,8.48,1.96c2.039,1.52,3.029,4.189,3.029,8.141v5.06c0,3.63-0.381,8.021-3.381,9.78
	c-1.77,1.029-4.35,1.51-8.129,1.51h-3V37.615z"/>
<path id="E" fill="#FFFFFF" d="M789.829,101.445V75.225h17.5v-11.5h-17.5v-23.44h18.701V27.885h-40.701v85.97h42.561v-12.41H789.829
	z"/>
</svg>
