<?xml version="1.0" encoding="utf-8"?>
<!-- Generator: Adobe Illustrator 16.0.0, SVG Export Plug-In . SVG Version: 6.00 Build 0)  -->
<!DOCTYPE svg PUBLIC "-//W3C//DTD SVG 1.1//EN" "http://www.w3.org/Graphics/SVG/1.1/DTD/svg11.dtd">
<svg version="1.1" id="圖層_1" xmlns="http://www.w3.org/2000/svg" xmlns:xlink="http://www.w3.org/1999/xlink" x="0px" y="0px"
	 width="668px" height="398px" viewBox="0 0 668 398" enable-background="new 0 0 668 398" xml:space="preserve">
<rect x="138.315" y="21.492" fill="#231815" width="7" height="141.611"/>
<path d="M140.503,186.84l-12.207,10.645c-6.186-6.966-15.593-17.251-28.223-30.859c-7.358,8.398-15.17,18.686-23.438,30.859
	l-13.965-7.715c8.789-12.891,17.544-24.219,26.27-33.984c-5.273-5.013-13.249-11.685-23.926-20.02l10.547-12.207
	c7.031,5.078,15.169,11.914,24.414,20.508c4.622-4.102,10.091-8.169,16.406-12.207c6.445-4.102,11.328-6.607,14.648-7.52
	l8.105,14.063c-7.944,2.409-17.285,8.042-28.027,16.895c3.384,3.386,8.301,8.627,14.746,15.723
	C132.235,178.182,137.118,183.456,140.503,186.84z"/>
<path d="M136.972,226.676c5.852,15.536-4.872,33.956-23.95,41.142c-19.078,7.184-39.288,0.412-45.139-15.127
	c-5.851-15.535,4.872-33.955,23.951-41.14C110.912,204.367,131.121,211.139,136.972,226.676z"/>
<rect x="138.315" y="162.819" fill="#231815" width="7" height="104.81"/>
<path fill="#231815" d="M138.315,267.345v72.005c-0.251-1.792-0.688-3.569-1.343-5.31c-5.851-15.537-26.061-22.309-45.139-15.125
	c-19.079,7.186-29.801,25.605-23.951,41.141c5.851,15.539,26.061,22.311,45.139,15.127c14.13-5.322,23.669-16.808,25.293-28.719
	v28.529h7V267.345H138.315z"/>
<polygon fill="#231815" points="216.153,21.461 145.347,21.461 145.347,36.461 216.153,36.461 286.959,36.461 286.959,21.461 "/>
<rect x="145.347" y="48.723" fill="#231815" width="70.806" height="15"/>
<rect x="216.153" y="48.723" fill="#231815" width="70.806" height="15"/>
<polygon fill="#231815" points="364.69,21.461 293.884,21.461 293.884,36.461 364.69,36.461 435.502,36.461 435.502,21.461 "/>
<rect x="293.884" y="48.723" fill="#231815" width="70.807" height="15"/>
<rect x="364.69" y="48.723" fill="#231815" width="70.812" height="15"/>
<polygon fill="#231815" points="513.165,21.461 442.358,21.461 442.358,36.461 513.165,36.461 583.972,36.461 583.972,21.461 "/>
<rect x="442.358" y="48.723" fill="#231815" width="70.807" height="15"/>
<rect x="513.165" y="48.723" fill="#231815" width="70.807" height="15"/>
<path d="M289.086,186.84l-12.207,10.645c-6.186-6.966-15.593-17.251-28.223-30.859c-7.358,8.398-15.17,18.686-23.438,30.859
	l-13.965-7.715c8.789-12.891,17.544-24.219,26.27-33.984c-5.273-5.013-13.249-11.685-23.926-20.02l10.547-12.207
	c7.031,5.078,15.169,11.914,24.414,20.508c4.622-4.102,10.091-8.169,16.406-12.207c6.445-4.102,11.328-6.607,14.648-7.52
	l8.105,14.063c-7.944,2.409-17.285,8.042-28.027,16.895c3.384,3.386,8.301,8.627,14.746,15.723
	C280.817,178.182,285.7,183.456,289.086,186.84z"/>
<path d="M285.541,226.676c5.852,15.536-4.871,33.956-23.95,41.142c-19.078,7.184-39.288,0.412-45.139-15.127
	c-5.851-15.535,4.871-33.955,23.95-41.14C259.48,204.367,279.69,211.139,285.541,226.676z"/>
<rect x="286.884" y="162.819" fill="#231815" width="7" height="104.81"/>
<path fill="#231815" d="M286.884,267.345v72.009c-0.251-1.794-0.688-3.572-1.343-5.313c-5.851-15.537-26.061-22.309-45.139-15.125
	c-19.079,7.186-29.801,25.605-23.95,41.141c5.851,15.539,26.061,22.311,45.139,15.127c14.132-5.322,23.67-16.809,25.293-28.722
	v28.532h7V267.345H286.884z"/>
<path d="M437.647,186.84l-12.207,10.645c-6.187-6.966-15.594-17.251-28.223-30.859c-7.358,8.398-15.171,18.686-23.438,30.859
	l-13.965-7.715c8.789-12.891,17.544-24.219,26.27-33.984c-5.273-5.013-13.25-11.685-23.926-20.02l10.547-12.207
	c7.031,5.078,15.168,11.914,24.414,20.508c4.621-4.102,10.09-8.169,16.406-12.207c6.445-4.102,11.328-6.607,14.648-7.52
	l8.105,14.063c-7.944,2.409-17.285,8.042-28.027,16.895c3.384,3.386,8.301,8.627,14.746,15.723
	C429.378,178.182,434.261,183.456,437.647,186.84z"/>
<path d="M434.137,226.676c5.852,15.536-4.871,33.956-23.948,41.142c-19.081,7.184-39.295,0.412-45.151-15.127
	c-5.861-15.535,4.878-33.955,23.956-41.14C408.077,204.367,428.286,211.139,434.137,226.676z"/>
<rect x="435.48" y="162.819" fill="#231815" width="7" height="104.81"/>
<path fill="#231815" d="M435.48,267.345v72.012c-0.251-1.795-0.688-3.574-1.344-5.316c-5.851-15.537-26.06-22.309-45.144-15.125
	c-19.078,7.186-29.817,25.605-23.956,41.141c5.856,15.539,26.07,22.311,45.151,15.127c14.132-5.323,23.67-16.811,25.292-28.725
	v28.535h7V267.345H435.48z"/>
<path d="M586.23,186.84l-12.207,10.645c-6.187-6.966-15.593-17.251-28.223-30.859c-7.358,8.398-15.171,18.686-23.438,30.859
	l-13.965-7.715c8.789-12.891,17.544-24.219,26.27-33.984c-5.273-5.013-13.249-11.685-23.926-20.02l10.547-12.207
	c7.031,5.078,15.169,11.914,24.414,20.508c4.622-4.102,10.091-8.169,16.406-12.207c6.445-4.102,11.328-6.607,14.648-7.52
	l8.105,14.063c-7.944,2.409-17.285,8.042-28.027,16.895c3.384,3.386,8.301,8.627,14.746,15.723
	C577.962,178.182,582.845,183.456,586.23,186.84z"/>
<path d="M582.719,226.676c5.852,15.536-4.871,33.956-23.949,41.142c-19.078,7.184-39.289,0.412-45.14-15.127
	c-5.851-15.535,4.872-33.955,23.95-41.14S576.868,211.139,582.719,226.676z"/>
<rect x="584.063" y="162.819" fill="#231815" width="7" height="104.81"/>
<path fill="#231815" d="M584.063,267.345v69.173c-0.218-0.832-0.47-1.659-0.777-2.478c-5.851-15.537-26.061-22.309-45.139-15.125
	c-19.078,7.186-29.801,25.605-23.95,41.141c5.851,15.539,26.062,22.311,45.14,15.127c12.957-4.88,22.052-14.943,24.727-25.765
	v25.575h7V267.345H584.063z"/>
<circle fill="#231815" cx="157.254" cy="157.075" r="7.719"/>
<circle fill="#231815" cx="157.254" cy="233.656" r="7.719"/>
<circle fill="#231815" cx="157.253" cy="347.048" r="7.719"/>
<rect x="286.884" y="21.492" fill="#231815" width="7" height="141.611"/>
<path fill="#231815" d="M291.969,21.308c0,0,0.492,0.081,1.356,0.342c0.426,0.147,0.953,0.326,1.558,0.571
	c0.59,0.274,1.277,0.574,2.016,0.969c0.729,0.413,1.533,0.874,2.385,1.414c0.843,0.555,1.732,1.188,2.66,1.889
	c1.838,1.428,3.914,3.018,6.027,4.94c2.106,1.925,4.232,4.2,6.144,6.866c1.912,2.661,3.6,5.722,4.804,9.098
	c1.205,3.372,1.933,7.048,2.044,10.804c0.12,3.757-0.345,7.568-1.208,11.268c-0.241,0.919-0.421,1.856-0.714,2.759l-0.871,2.706
	c-0.629,1.774-1.366,3.532-2.049,5.237c-1.469,3.421-2.663,6.825-3.604,10.212c-0.919,3.378-1.509,6.746-1.434,9.931
	c0.084,3.16,0.843,6.189,2.561,8.314c1.654,2.171,4.018,3.333,6.149,3.913c2.151,0.609,4.142,0.676,5.753,0.669
	c1.619-0.024,2.888-0.181,3.744-0.313c0.856-0.133,1.292-0.239,1.292-0.239l0.229,0.974c0,0-0.469,0.166-1.349,0.4
	c-0.881,0.232-2.183,0.537-3.897,0.742c-1.711,0.183-3.847,0.344-6.369-0.104c-1.261-0.198-2.614-0.605-3.996-1.253
	c-1.393-0.629-2.77-1.635-3.971-2.925c-2.486-2.604-3.751-6.381-4.188-10.089c-0.434-3.752-0.123-7.565,0.505-11.348
	c0.124-0.971,0.356-1.881,0.537-2.84c0.097-0.476,0.195-0.953,0.293-1.432l0.364-1.442c0.247-0.949,0.496-1.98,0.754-2.888
	c0.257-0.888,0.516-1.78,0.776-2.676l0.195-0.673l0.049-0.168l0.012-0.042c-0.006,0.009,0.094-0.232,0.056-0.148l0.021-0.078
	l0.081-0.309l0.325-1.234c0.2-0.824,0.472-1.636,0.617-2.463l0.473-2.462c0.162-0.816,0.204-1.635,0.315-2.443
	c0.337-3.235,0.291-6.375-0.2-9.247c-0.485-2.876-1.425-5.468-2.643-7.756c-2.44-4.577-6.098-7.974-9.703-10.439
	c-0.923-0.592-1.759-1.222-2.721-1.614c-0.963-0.391-2.069-0.472-3.022-0.627c-0.979-0.117-1.767-0.382-2.356-0.869
	c-0.577-0.507-0.981-1.203-1.271-2.013c-0.654-1.455-0.273-4.572,0.166-7.469c0.127-0.779,0.239-1.468,0.336-2.062
	c0.125-0.692,0.231-1.275,0.316-1.744c0.101-0.52,0.19-0.966,0.231-1.244c0.046-0.284,0.07-0.429,0.07-0.429L291.969,21.308z"/>
<rect x="435.503" y="21.492" fill="#231815" width="7" height="141.611"/>
<path fill="#231815" d="M440.587,21.308c0,0,0.492,0.081,1.356,0.342c0.427,0.147,0.953,0.326,1.558,0.571
	c0.591,0.274,1.277,0.574,2.017,0.969c0.729,0.413,1.533,0.874,2.385,1.414c0.843,0.555,1.731,1.188,2.659,1.889
	c1.838,1.428,3.914,3.018,6.027,4.94c2.106,1.925,4.232,4.2,6.145,6.866c1.911,2.661,3.6,5.722,4.804,9.098
	c1.205,3.372,1.933,7.048,2.044,10.804c0.119,3.757-0.345,7.568-1.208,11.268c-0.241,0.919-0.421,1.856-0.714,2.759l-0.871,2.706
	c-0.629,1.774-1.365,3.532-2.049,5.237c-1.469,3.421-2.663,6.825-3.604,10.212c-0.919,3.378-1.509,6.746-1.435,9.931
	c0.084,3.16,0.844,6.189,2.561,8.314c1.654,2.171,4.019,3.333,6.149,3.913c2.151,0.609,4.142,0.676,5.753,0.669
	c1.619-0.024,2.889-0.181,3.744-0.313c0.855-0.133,1.291-0.239,1.291-0.239l0.229,0.974c0,0-0.469,0.166-1.349,0.4
	c-0.881,0.232-2.183,0.537-3.897,0.742c-1.711,0.183-3.846,0.344-6.368-0.104c-1.261-0.198-2.614-0.605-3.996-1.253
	c-1.393-0.629-2.771-1.635-3.971-2.925c-2.485-2.604-3.751-6.381-4.188-10.089c-0.434-3.752-0.122-7.565,0.506-11.348
	c0.123-0.971,0.355-1.881,0.536-2.84c0.097-0.476,0.194-0.953,0.293-1.432l0.364-1.442c0.246-0.949,0.496-1.98,0.754-2.888
	c0.257-0.888,0.516-1.78,0.775-2.676l0.195-0.673l0.049-0.168l0.012-0.042c-0.006,0.009,0.094-0.232,0.057-0.148l0.02-0.078
	l0.082-0.309l0.324-1.234c0.201-0.824,0.473-1.636,0.617-2.463l0.473-2.462c0.162-0.816,0.204-1.635,0.315-2.443
	c0.337-3.235,0.291-6.375-0.2-9.247c-0.484-2.876-1.425-5.468-2.643-7.756c-2.44-4.577-6.098-7.974-9.703-10.439
	c-0.924-0.592-1.76-1.222-2.721-1.614c-0.963-0.391-2.068-0.472-3.022-0.627c-0.979-0.117-1.767-0.382-2.356-0.869
	c-0.576-0.507-0.98-1.203-1.271-2.013c-0.654-1.455-0.273-4.572,0.166-7.469c0.127-0.779,0.24-1.468,0.337-2.062
	c0.126-0.692,0.231-1.275,0.315-1.744c0.102-0.52,0.19-0.966,0.231-1.244c0.046-0.284,0.069-0.429,0.069-0.429L440.587,21.308z"/>
<rect x="584.063" y="21.492" fill="#231815" width="7" height="141.611"/>
<path fill="#231815" d="M589.146,21.309c0,0,0.491,0.081,1.355,0.342c0.427,0.147,0.953,0.326,1.559,0.571
	c0.59,0.274,1.277,0.574,2.016,0.968c0.729,0.413,1.533,0.874,2.385,1.414c0.843,0.555,1.732,1.188,2.66,1.89
	c1.838,1.428,3.914,3.017,6.027,4.94c2.106,1.925,4.231,4.2,6.144,6.865c1.911,2.661,3.6,5.722,4.804,9.098
	c1.206,3.371,1.934,7.047,2.045,10.804c0.12,3.758-0.345,7.569-1.208,11.268c-0.241,0.918-0.421,1.856-0.714,2.758l-0.87,2.706
	c-0.63,1.775-1.366,3.532-2.05,5.237c-1.469,3.421-2.663,6.825-3.604,10.212c-0.919,3.378-1.51,6.747-1.435,9.932
	c0.085,3.16,0.844,6.189,2.561,8.314c1.655,2.172,4.019,3.333,6.149,3.914c2.151,0.609,4.143,0.676,5.753,0.669
	c1.619-0.024,2.889-0.181,3.744-0.313c0.856-0.133,1.292-0.239,1.292-0.239l0.229,0.973c0,0-0.469,0.166-1.35,0.4
	c-0.88,0.232-2.183,0.537-3.896,0.742c-1.711,0.183-3.847,0.344-6.368-0.104c-1.262-0.198-2.614-0.605-3.996-1.253
	c-1.393-0.629-2.77-1.635-3.971-2.925c-2.485-2.604-3.751-6.38-4.188-10.089c-0.434-3.752-0.122-7.565,0.506-11.348
	c0.123-0.971,0.356-1.881,0.536-2.84c0.098-0.476,0.195-0.953,0.293-1.432l0.364-1.442c0.246-0.949,0.496-1.98,0.754-2.888
	c0.257-0.888,0.516-1.78,0.775-2.676l0.195-0.673l0.049-0.168l0.012-0.042c-0.006,0.009,0.094-0.232,0.057-0.148l0.021-0.078
	l0.081-0.309l0.324-1.234c0.201-0.824,0.473-1.636,0.617-2.463l0.473-2.462c0.162-0.816,0.204-1.635,0.315-2.443
	c0.337-3.235,0.291-6.375-0.2-9.247c-0.485-2.877-1.425-5.469-2.644-7.756c-2.439-4.577-6.098-7.974-9.703-10.439
	c-0.923-0.592-1.759-1.222-2.721-1.614c-0.963-0.392-2.069-0.472-3.022-0.627c-0.979-0.117-1.768-0.382-2.356-0.869
	c-0.576-0.507-0.98-1.203-1.271-2.013c-0.654-1.455-0.273-4.573,0.166-7.47c0.127-0.779,0.239-1.468,0.337-2.062
	c0.125-0.692,0.23-1.275,0.315-1.744c0.101-0.52,0.189-0.966,0.231-1.244c0.046-0.285,0.069-0.429,0.069-0.429L589.146,21.309z"/>
</svg>
